<mxfile host="app.diagrams.net" modified="2023-06-30T18:22:24.159Z" agent="Mozilla/5.0 (Windows NT 10.0; Win64; x64) AppleWebKit/537.36 (KHTML, like Gecko) Chrome/114.0.0.0 Safari/537.36" version="21.5.2" etag="uvpzpj2dt7-oDiGwbC-J" type="github">
  <diagram name="Page-1" id="VVHC5IhTdUStKSJpm0Cq">
    <mxGraphModel>
      <root>
        <mxCell id="0" />
        <mxCell id="1" parent="0" />
      </root>
    </mxGraphModel>
  </diagram>
</mxfile>
